<?xml version="1.0" encoding="UTF-8"?>
<svg id="Layer_2" data-name="Layer 2" xmlns="http://www.w3.org/2000/svg" viewBox="0 0 9.35 11.38">
  <defs>
    <style>
      .cls-1 {
        fill: #f5f5f5;
      }
    </style>
  </defs>
  <g id="Layer_1-2" data-name="Layer 1">
    <path class="cls-1" d="M4.87,11.38c-1.48,0-2.65-.32-3.52-.95-.87-.64-1.32-1.55-1.35-2.74h2.72c.11,1.04.83,1.56,2.14,1.56.49,0,.9-.09,1.25-.28.34-.19.51-.48.51-.86,0-.26-.11-.49-.32-.66s-.43-.3-.65-.37c-.22-.07-.63-.18-1.25-.34-.03,0-.05-.02-.06-.02-.01,0-.03,0-.05-.01-.02,0-.04,0-.06,0-.47-.11-.85-.21-1.15-.3-.3-.09-.64-.22-1.02-.4-.38-.18-.69-.37-.91-.59-.22-.21-.42-.5-.57-.85-.16-.35-.24-.75-.24-1.18C.34,2.24.74,1.4,1.54.84s1.85-.84,3.14-.84,2.26.29,3.05.86c.79.57,1.21,1.41,1.26,2.51h-2.64c-.05-.42-.23-.74-.53-.97s-.71-.34-1.22-.34c-.47,0-.85.09-1.14.28-.29.19-.44.44-.44.74,0,.35.17.6.52.76.35.16,1,.34,1.96.56.6.14,1.09.28,1.48.42.39.14.78.33,1.18.59s.7.58.9.99c.2.4.3.88.3,1.44,0,1.11-.42,1.98-1.26,2.61s-1.91.95-3.22.95Z"/>
  </g>
</svg>