<?xml version="1.0" encoding="UTF-8"?>
<svg id="Layer_2" data-name="Layer 2" xmlns="http://www.w3.org/2000/svg" viewBox="0 0 9.77 11.41">
  <defs>
    <style>
      .cls-1 {
        fill: #f5f5f5;
      }
    </style>
  </defs>
  <g id="Layer_1-2" data-name="Layer 1">
    <path class="cls-1" d="M5.05,11.41c-1.49,0-2.7-.32-3.63-.96-.93-.64-1.4-1.57-1.42-2.79h3.28c.1.86.71,1.29,1.84,1.29.37,0,.69-.07.97-.22.28-.15.42-.38.42-.68,0-.34-.24-.6-.72-.78-.21-.08-.67-.21-1.36-.38-.47-.11-.85-.21-1.15-.31-.3-.09-.65-.23-1.06-.42-.41-.19-.73-.39-.97-.61-.24-.22-.45-.51-.62-.87-.17-.36-.26-.76-.26-1.21C.37,2.28.79,1.4,1.62.84c.84-.56,1.92-.84,3.26-.84.8,0,1.51.11,2.14.32.63.21,1.16.58,1.59,1.1.43.51.65,1.16.66,1.92h-3.17c-.1-.65-.57-.98-1.39-.98-.35,0-.63.07-.86.21-.22.14-.34.33-.34.55,0,.07.01.14.03.19.02.06.06.11.11.16s.1.1.16.14.14.08.24.11c.1.04.2.07.28.1.09.03.21.06.36.1.15.04.29.07.41.1.12.03.27.07.47.11.19.04.37.08.52.12.53.13.99.27,1.36.42.38.15.76.35,1.14.61.38.26.67.6.87,1.01.2.41.3.9.3,1.45,0,1.15-.45,2.05-1.34,2.7-.89.64-2.02.96-3.38.96Z"/>
  </g>
</svg>